<svg id="visual" viewBox="0 0 960 540" width="960" height="540" xmlns="http://www.w3.org/2000/svg" xmlns:xlink="http://www.w3.org/1999/xlink" version="1.1"><rect x="0" y="0" width="960" height="540" fill="#1a1a1a"></rect><path d="M0 415L22.8 415C45.7 415 91.3 415 137 417.3C182.7 419.7 228.3 424.3 274 429.8C319.7 435.3 365.3 441.7 411.2 446.2C457 450.7 503 453.3 548.8 450.7C594.7 448 640.3 440 686 433.7C731.7 427.3 777.3 422.7 823 418.8C868.7 415 914.3 412 937.2 410.5L960 409L960 541L937.2 541C914.3 541 868.7 541 823 541C777.3 541 731.7 541 686 541C640.3 541 594.7 541 548.8 541C503 541 457 541 411.2 541C365.3 541 319.7 541 274 541C228.3 541 182.7 541 137 541C91.3 541 45.7 541 22.8 541L0 541Z" fill="#404040"></path><path d="M0 475L22.8 473.3C45.7 471.7 91.3 468.3 137 461.8C182.7 455.3 228.3 445.7 274 444.2C319.7 442.7 365.3 449.3 411.2 454.2C457 459 503 462 548.8 459.5C594.7 457 640.3 449 686 444.5C731.7 440 777.3 439 823 440.5C868.7 442 914.3 446 937.2 448L960 450L960 541L937.2 541C914.3 541 868.7 541 823 541C777.3 541 731.7 541 686 541C640.3 541 594.7 541 548.8 541C503 541 457 541 411.2 541C365.3 541 319.7 541 274 541C228.3 541 182.7 541 137 541C91.3 541 45.7 541 22.8 541L0 541Z" fill="#4b4a4b"></path><path d="M0 458L22.8 462.7C45.7 467.3 91.3 476.7 137 481.7C182.7 486.7 228.3 487.3 274 487.5C319.7 487.7 365.3 487.3 411.2 482.5C457 477.7 503 468.3 548.8 462.7C594.7 457 640.3 455 686 455.2C731.7 455.3 777.3 457.7 823 463C868.7 468.3 914.3 476.7 937.2 480.8L960 485L960 541L937.2 541C914.3 541 868.7 541 823 541C777.3 541 731.7 541 686 541C640.3 541 594.7 541 548.8 541C503 541 457 541 411.2 541C365.3 541 319.7 541 274 541C228.3 541 182.7 541 137 541C91.3 541 45.7 541 22.8 541L0 541Z" fill="#565556"></path><path d="M0 484L22.8 486C45.7 488 91.3 492 137 493.7C182.7 495.3 228.3 494.7 274 493.2C319.7 491.7 365.3 489.3 411.2 489.8C457 490.3 503 493.7 548.8 495.7C594.7 497.7 640.3 498.3 686 499.5C731.7 500.7 777.3 502.3 823 503.5C868.7 504.7 914.3 505.3 937.2 505.7L960 506L960 541L937.2 541C914.3 541 868.7 541 823 541C777.3 541 731.7 541 686 541C640.3 541 594.7 541 548.8 541C503 541 457 541 411.2 541C365.3 541 319.7 541 274 541C228.3 541 182.7 541 137 541C91.3 541 45.7 541 22.8 541L0 541Z" fill="#626061"></path><path d="M0 514L22.8 511.8C45.7 509.7 91.3 505.3 137 505.8C182.7 506.3 228.3 511.7 274 515.7C319.7 519.7 365.3 522.3 411.2 520.5C457 518.7 503 512.3 548.8 511.7C594.7 511 640.3 516 686 517.8C731.7 519.7 777.3 518.3 823 515C868.7 511.7 914.3 506.3 937.2 503.7L960 501L960 541L937.2 541C914.3 541 868.7 541 823 541C777.3 541 731.7 541 686 541C640.3 541 594.7 541 548.8 541C503 541 457 541 411.2 541C365.3 541 319.7 541 274 541C228.3 541 182.7 541 137 541C91.3 541 45.7 541 22.8 541L0 541Z" fill="#6e6b6c"></path></svg>