<svg id="visual" viewBox="0 0 960 540" width="960" height="540" xmlns="http://www.w3.org/2000/svg" xmlns:xlink="http://www.w3.org/1999/xlink" version="1.1"><rect x="0" y="0" width="960" height="540" fill="#1a1a1a"></rect><path d="M0 329L22.8 332.7C45.7 336.3 91.3 343.7 137 354.3C182.7 365 228.3 379 274 379C319.7 379 365.3 365 411.2 364.5C457 364 503 377 548.8 380.2C594.7 383.3 640.3 376.7 686 364.5C731.7 352.3 777.3 334.7 823 337.3C868.7 340 914.3 363 937.2 374.5L960 386L960 541L937.2 541C914.3 541 868.7 541 823 541C777.3 541 731.7 541 686 541C640.3 541 594.7 541 548.8 541C503 541 457 541 411.2 541C365.3 541 319.7 541 274 541C228.3 541 182.7 541 137 541C91.3 541 45.7 541 22.8 541L0 541Z" fill="#3b3b3b"></path><path d="M0 407L22.8 404.5C45.7 402 91.3 397 137 395.5C182.7 394 228.3 396 274 402.5C319.7 409 365.3 420 411.2 423C457 426 503 421 548.8 420.3C594.7 419.7 640.3 423.3 686 413.3C731.7 403.3 777.3 379.7 823 369.8C868.7 360 914.3 364 937.2 366L960 368L960 541L937.2 541C914.3 541 868.7 541 823 541C777.3 541 731.7 541 686 541C640.3 541 594.7 541 548.8 541C503 541 457 541 411.2 541C365.3 541 319.7 541 274 541C228.3 541 182.7 541 137 541C91.3 541 45.7 541 22.8 541L0 541Z" fill="#4c4c4c"></path><path d="M0 429L22.8 433.7C45.7 438.3 91.3 447.7 137 444.2C182.7 440.7 228.3 424.3 274 413.8C319.7 403.3 365.3 398.7 411.2 398.2C457 397.7 503 401.3 548.8 411.8C594.7 422.3 640.3 439.7 686 446.3C731.7 453 777.3 449 823 443.8C868.7 438.7 914.3 432.3 937.2 429.2L960 426L960 541L937.2 541C914.3 541 868.7 541 823 541C777.3 541 731.7 541 686 541C640.3 541 594.7 541 548.8 541C503 541 457 541 411.2 541C365.3 541 319.7 541 274 541C228.3 541 182.7 541 137 541C91.3 541 45.7 541 22.8 541L0 541Z" fill="#5e5e5e"></path><path d="M0 487L22.8 484.5C45.7 482 91.3 477 137 474.3C182.7 471.7 228.3 471.3 274 472.3C319.7 473.3 365.3 475.7 411.2 472.2C457 468.7 503 459.3 548.8 451.8C594.7 444.3 640.3 438.7 686 437.2C731.7 435.7 777.3 438.3 823 439.2C868.7 440 914.3 439 937.2 438.5L960 438L960 541L937.2 541C914.3 541 868.7 541 823 541C777.3 541 731.7 541 686 541C640.3 541 594.7 541 548.8 541C503 541 457 541 411.2 541C365.3 541 319.7 541 274 541C228.3 541 182.7 541 137 541C91.3 541 45.7 541 22.8 541L0 541Z" fill="#717171"></path><path d="M0 511L22.8 507.2C45.7 503.3 91.3 495.7 137 490.2C182.7 484.7 228.3 481.3 274 485C319.7 488.7 365.3 499.3 411.2 504C457 508.7 503 507.3 548.8 505.3C594.7 503.3 640.3 500.7 686 502.2C731.7 503.7 777.3 509.3 823 510.7C868.7 512 914.3 509 937.2 507.5L960 506L960 541L937.2 541C914.3 541 868.7 541 823 541C777.3 541 731.7 541 686 541C640.3 541 594.7 541 548.8 541C503 541 457 541 411.2 541C365.3 541 319.7 541 274 541C228.3 541 182.7 541 137 541C91.3 541 45.7 541 22.8 541L0 541Z" fill="#848484"></path></svg>